<svg width="128" height="128" viewBox="0 0 128 128" fill="none" xmlns="http://www.w3.org/2000/svg">
<path d="M37.3333 90.6667H48V64H37.3333V90.6667ZM80 90.6667H90.6667V37.3333H80V90.6667ZM58.6667 90.6667H69.3333V74.6667H58.6667V90.6667ZM58.6667 64H69.3333V53.3333H58.6667V64ZM26.6667 112C23.7333 112 21.2231 110.956 19.136 108.869C17.0489 106.782 16.0036 104.27 16 101.333V26.6667C16 23.7333 17.0453 21.2231 19.136 19.136C21.2267 17.0489 23.7369 16.0036 26.6667 16H101.333C104.267 16 106.779 17.0453 108.869 19.136C110.96 21.2267 112.004 23.7369 112 26.6667V101.333C112 104.267 110.956 106.779 108.869 108.869C106.782 110.96 104.27 112.004 101.333 112H26.6667ZM26.6667 101.333H101.333V26.6667H26.6667V101.333Z" fill="#0566B8"/>
</svg>
