<svg width="128" height="128" viewBox="0 0 128 128" fill="none" xmlns="http://www.w3.org/2000/svg">
<path d="M32 81.7333C33.2445 81.1111 34.5333 80.6666 35.8667 80.4C37.2 80.1333 38.5778 80 40 80H42.6667V21.3333H40C37.7778 21.3333 35.8898 22.112 34.336 23.6693C32.7822 25.2266 32.0036 27.1146 32 29.3333V81.7333ZM53.3333 80H96V21.3333H53.3333V80ZM40 117.333C34.8445 117.333 30.4445 115.511 26.8 111.867C23.1556 108.222 21.3333 103.822 21.3333 98.6666V29.3333C21.3333 24.1777 23.1556 19.7777 26.8 16.1333C30.4445 12.4888 34.8445 10.6666 40 10.6666H96C98.9333 10.6666 101.445 11.7102 103.536 13.7973C105.627 15.8844 106.67 18.3964 106.667 21.3333V88.1333C106.667 88.8444 106.379 89.4897 105.803 90.0693C105.227 90.6488 104.181 91.2924 102.667 92C101.422 92.6222 100.444 93.5111 99.7333 94.6666C99.0222 95.8222 98.6667 97.1555 98.6667 98.6666C98.6667 100.178 99.0222 101.534 99.7333 102.736C100.444 103.938 101.422 104.804 102.667 105.333C103.911 105.863 104.889 106.597 105.6 107.536C106.311 108.475 106.667 109.474 106.667 110.533V111.867C106.667 113.378 106.155 114.667 105.131 115.733C104.107 116.8 102.841 117.333 101.333 117.333H40ZM40 106.667H89.7333C89.2 105.422 88.7787 104.156 88.4693 102.869C88.16 101.582 88.0036 100.181 88 98.6666C88 97.2444 88.1333 95.8666 88.4 94.5333C88.6667 93.2 89.1111 91.9111 89.7333 90.6666H40C37.6889 90.6666 35.7778 91.4453 34.2667 93.0026C32.7556 94.56 32 96.448 32 98.6666C32 100.978 32.7556 102.889 34.2667 104.4C35.7778 105.911 37.6889 106.667 40 106.667Z" fill="#0566B8"/>
</svg>
