<svg width="128" height="128" viewBox="0 0 128 128" fill="none" xmlns="http://www.w3.org/2000/svg">
<path d="M62.6667 85.3333H66.5333V81.0666C69.0222 80.7111 71.1342 79.6888 72.8693 78C74.6044 76.3111 75.4702 74.1333 75.4667 71.4666C75.4667 69.1555 74.5778 67.2213 72.8 65.664C71.0222 64.1066 68.9778 62.8409 66.6667 61.8666V52C67.5556 52.2666 68.2898 52.7111 68.8693 53.3333C69.4489 53.9555 69.8702 54.7111 70.1333 55.6L74.9333 53.6C74.3111 51.7333 73.2444 50.2453 71.7333 49.136C70.2222 48.0266 68.5333 47.2924 66.6667 46.9333V42.6666H62.6667V46.8C60.1778 47.0666 58.0676 47.9786 56.336 49.536C54.6044 51.0933 53.7369 53.1591 53.7333 55.7333C53.7333 58.1333 54.6453 60.1333 56.4693 61.7333C58.2933 63.3333 60.3591 64.6222 62.6667 65.6V76.1333C61.2444 75.6888 60.0444 74.9333 59.0667 73.8666C58.0889 72.8 57.4222 71.5555 57.0667 70.1333L52.4 72.1333C53.1111 74.6222 54.3556 76.6666 56.1333 78.2666C57.9111 79.8666 60.0889 80.8444 62.6667 81.2V85.3333ZM66.6667 76V67.2C67.6444 67.6444 68.512 68.1777 69.2693 68.8C70.0267 69.4222 70.4036 70.3555 70.4 71.6C70.4 73.0222 70.0444 74.0231 69.3333 74.6026C68.6222 75.1822 67.7333 75.648 66.6667 76ZM62.6667 60.1333C61.6889 59.6888 60.8 59.1555 60 58.5333C59.2 57.9111 58.8 56.9777 58.8 55.7333C58.8 54.4888 59.2 53.5769 60 52.9973C60.8 52.4177 61.6889 52.0409 62.6667 51.8666V60.1333ZM42.6667 101.333C32.2667 101.333 23.4453 97.712 16.2027 90.4693C8.96 83.2266 5.33689 74.4035 5.33333 64C5.32978 53.5964 8.95289 44.7751 16.2027 37.536C23.4524 30.2968 32.2738 26.6737 42.6667 26.6666H85.3333C95.7333 26.6666 104.556 30.2897 111.803 37.536C119.049 44.7822 122.67 53.6035 122.667 64C122.663 74.3964 119.042 83.2195 111.803 90.4693C104.564 97.7191 95.7404 101.34 85.3333 101.333H42.6667ZM42.6667 90.6666H85.3333C92.7111 90.6666 99.0009 88.0657 104.203 82.864C109.404 77.6622 112.004 71.3742 112 64C111.996 56.6257 109.396 50.3377 104.197 45.136C98.9991 39.9342 92.7111 37.3333 85.3333 37.3333H42.6667C35.2889 37.3333 29.0009 39.9342 23.8027 45.136C18.6044 50.3377 16.0036 56.6257 16 64C15.9964 71.3742 18.5973 77.664 23.8027 82.8693C29.008 88.0746 35.296 90.6737 42.6667 90.6666Z" fill="#0566B8"/>
</svg>
