<svg width="237" height="117" viewBox="0 0 237 117" fill="none" xmlns="http://www.w3.org/2000/svg">
<path d="M150.686 45.4532V25.3921C150.686 24.9732 150.837 24.6187 151.137 24.3286C151.438 24.0386 151.798 23.8936 152.217 23.8936H170.796C171.215 23.8936 171.569 24.044 171.859 24.3448C172.16 24.6455 172.31 25.0054 172.31 25.4243V26.939C172.31 27.3579 172.16 27.7178 171.859 28.0186C171.569 28.3086 171.215 28.4536 170.796 28.4536H156.761V34.1255H168.185C168.604 34.1255 168.959 34.2759 169.249 34.5767C169.55 34.8775 169.7 35.232 169.7 35.6402V37.1709C169.7 37.5899 169.55 37.9497 169.249 38.2505C168.959 38.5406 168.604 38.6856 168.185 38.6856H156.761V45.4532C156.761 45.8936 156.611 46.2642 156.31 46.565C156.02 46.855 155.665 47 155.246 47H152.217C151.798 47 151.438 46.855 151.137 46.565C150.837 46.2642 150.686 45.8936 150.686 45.4532Z" fill="#0D74CC"/>
<path d="M173.971 25.9722V25.4243C173.971 24.855 174.132 24.4038 174.454 24.0708C174.787 23.7378 175.244 23.5713 175.824 23.5713H177.822C178.391 23.5713 178.842 23.7378 179.175 24.0708C179.508 24.3931 179.675 24.8443 179.675 25.4243V25.9722C179.675 26.5415 179.508 26.9927 179.175 27.3257C178.853 27.6587 178.402 27.8252 177.822 27.8252H175.824C175.254 27.8252 174.803 27.6587 174.47 27.3257C174.137 26.9927 173.971 26.5415 173.971 25.9722ZM174.035 46.0171V30.7256C174.035 30.4356 174.126 30.1992 174.309 30.0166C174.502 29.834 174.739 29.7427 175.018 29.7427H178.627C178.917 29.7427 179.154 29.8394 179.336 30.0327C179.519 30.2154 179.61 30.4463 179.61 30.7256V46.0171C179.61 46.3072 179.514 46.5435 179.32 46.7261C179.138 46.9087 178.907 47 178.627 47H175.018C174.728 47 174.492 46.9087 174.309 46.7261C174.126 46.5435 174.035 46.3072 174.035 46.0171Z" fill="#0D74CC"/>
<path d="M181.98 34.2222C181.98 30.7525 184.778 29.0176 190.375 29.0176C196.261 29.0176 199.205 30.5591 199.205 33.6421C199.205 33.9214 199.113 34.1577 198.931 34.3511C198.748 34.5337 198.512 34.625 198.222 34.625H195.821C195.047 34.625 194.397 34.3028 193.871 33.6582C193.345 33.003 192.308 32.6753 190.761 32.6753C188.634 32.6753 187.571 33.1909 187.571 34.2222C187.571 34.7056 187.984 35.1084 188.812 35.4307C189.649 35.753 190.665 36.0376 191.857 36.2847C193.06 36.521 194.258 36.8272 195.45 37.2032C196.643 37.5791 197.652 38.1807 198.48 39.0078C199.317 39.8242 199.736 40.8609 199.736 42.1177C199.736 45.5874 196.782 47.3223 190.874 47.3223C184.966 47.3223 182.012 45.7862 182.012 42.7139C182.012 42.4239 182.103 42.1875 182.286 42.0049C182.479 41.8116 182.721 41.7149 183.011 41.7149H185.412C186.185 41.7149 186.835 42.0425 187.361 42.6978C187.888 43.3423 188.924 43.6646 190.471 43.6646C192.931 43.6646 194.161 43.149 194.161 42.1177C194.161 41.6343 193.742 41.2315 192.904 40.9092C192.077 40.5869 191.062 40.3023 189.859 40.0552C188.656 39.7974 187.458 39.4859 186.266 39.1206C185.084 38.7447 184.074 38.1431 183.236 37.3159C182.398 36.4888 181.98 35.4575 181.98 34.2222Z" fill="#0D74CC"/>
<path d="M202.073 46.0171V24.8926C202.073 24.6026 202.165 24.3662 202.347 24.1836C202.541 23.9903 202.777 23.8936 203.056 23.8936H206.666C206.945 23.8936 207.176 23.9903 207.359 24.1836C207.552 24.3662 207.649 24.6026 207.649 24.8926V31.354C209.496 29.7964 211.462 29.0176 213.546 29.0176C215.641 29.0176 217.343 29.6568 218.654 30.9351C219.965 32.2027 220.62 34.147 220.62 36.7681V46.0171C220.62 46.2964 220.523 46.5327 220.33 46.7261C220.147 46.9087 219.911 47 219.621 47H216.028C215.748 47 215.512 46.9087 215.319 46.7261C215.136 46.5327 215.045 46.2964 215.045 46.0171V36.7681C215.045 34.2007 214.019 32.917 211.967 32.917C210.624 32.917 209.185 33.6851 207.649 35.2212V46.0171C207.649 46.2964 207.552 46.5327 207.359 46.7261C207.176 46.9087 206.945 47 206.666 47H203.056C202.777 47 202.541 46.9087 202.347 46.7261C202.165 46.5327 202.073 46.2964 202.073 46.0171Z" fill="#0D74CC"/>
<path d="M136.304 87.8638V75.4243C136.304 75.0054 136.449 74.6455 136.739 74.3447C137.04 74.044 137.411 73.8936 137.851 73.8936H140.864C141.272 73.8936 141.627 74.044 141.928 74.3447C142.228 74.6455 142.379 75.0054 142.379 75.4243V87.896C142.379 89.4751 142.723 90.6514 143.41 91.4248C144.108 92.1983 145.183 92.585 146.633 92.585H149.211C150.661 92.585 151.73 92.1983 152.417 91.4248C153.116 90.6514 153.465 89.4751 153.465 87.896V75.4243C153.465 75.0054 153.61 74.6455 153.9 74.3447C154.201 74.044 154.561 73.8936 154.979 73.8936H157.977C158.417 73.8936 158.788 74.044 159.088 74.3447C159.389 74.6455 159.54 75.0054 159.54 75.4243V87.8638C159.54 90.8072 158.675 93.0899 156.945 94.7119C155.216 96.3233 152.691 97.1289 149.372 97.1289H146.472C143.142 97.1289 140.612 96.3233 138.882 94.7119C137.164 93.0899 136.304 90.8072 136.304 87.8638Z" fill="#0D74CC"/>
<path d="M171.255 93.5034L173.462 93.3101H174.058C174.348 93.3101 174.585 93.4014 174.767 93.584C174.961 93.7666 175.057 94.003 175.057 94.293V96.0171C175.057 96.2534 174.961 96.4683 174.767 96.6616C174.585 96.8443 174.348 96.9571 174.058 97C172.963 97.2149 171.534 97.3223 169.772 97.3223C165.153 97.3223 162.843 94.9053 162.843 90.0713V74.8926C162.843 74.6026 162.935 74.3662 163.117 74.1836C163.311 73.9903 163.547 73.8936 163.826 73.8936H167.436C167.715 73.8936 167.946 73.9903 168.129 74.1836C168.322 74.3662 168.419 74.6026 168.419 74.8926V80.2744H172.914C173.193 80.2744 173.424 80.3657 173.607 80.5484C173.8 80.731 173.897 80.9673 173.897 81.2573V83.1748C173.897 83.4649 173.8 83.7012 173.607 83.8838C173.424 84.0664 173.193 84.1577 172.914 84.1577H168.419V90.0713C168.419 91.167 168.676 92.0156 169.192 92.6172C169.708 93.208 170.395 93.5034 171.255 93.5034Z" fill="#0D74CC"/>
<path d="M177.04 75.9722V75.4243C177.04 74.855 177.201 74.4038 177.523 74.0708C177.856 73.7378 178.313 73.5713 178.893 73.5713H180.891C181.46 73.5713 181.911 73.7378 182.244 74.0708C182.577 74.3931 182.744 74.8443 182.744 75.4243V75.9722C182.744 76.5415 182.577 76.9927 182.244 77.3257C181.922 77.6587 181.471 77.8252 180.891 77.8252H178.893C178.324 77.8252 177.872 77.6587 177.539 77.3257C177.206 76.9927 177.04 76.5415 177.04 75.9722ZM177.104 96.0171V80.7256C177.104 80.4356 177.196 80.1992 177.378 80.0166C177.572 79.834 177.808 79.7427 178.087 79.7427H181.697C181.987 79.7427 182.223 79.8394 182.406 80.0327C182.588 80.2154 182.679 80.4463 182.679 80.7256V96.0171C182.679 96.3072 182.583 96.5435 182.389 96.7261C182.207 96.9087 181.976 97 181.697 97H178.087C177.797 97 177.561 96.9087 177.378 96.7261C177.196 96.5435 177.104 96.3072 177.104 96.0171Z" fill="#0D74CC"/>
<path d="M186.048 96.0171V74.8926C186.048 74.6026 186.139 74.3662 186.322 74.1836C186.515 73.9903 186.751 73.8936 187.031 73.8936H190.64C190.919 73.8936 191.15 73.9903 191.333 74.1836C191.526 74.3662 191.623 74.6026 191.623 74.8926V96.0171C191.623 96.2964 191.526 96.5327 191.333 96.7261C191.15 96.9087 190.919 97 190.64 97H187.031C186.751 97 186.515 96.9087 186.322 96.7261C186.139 96.5327 186.048 96.2964 186.048 96.0171Z" fill="#0D74CC"/>
<path d="M194.927 75.9722V75.4243C194.927 74.855 195.088 74.4038 195.41 74.0708C195.743 73.7378 196.2 73.5713 196.78 73.5713H198.778C199.347 73.5713 199.798 73.7378 200.131 74.0708C200.464 74.3931 200.631 74.8443 200.631 75.4243V75.9722C200.631 76.5415 200.464 76.9927 200.131 77.3257C199.809 77.6587 199.358 77.8252 198.778 77.8252H196.78C196.211 77.8252 195.759 77.6587 195.426 77.3257C195.093 76.9927 194.927 76.5415 194.927 75.9722ZM194.991 96.0171V80.7256C194.991 80.4356 195.083 80.1992 195.265 80.0166C195.459 79.834 195.695 79.7427 195.974 79.7427H199.584C199.874 79.7427 200.11 79.8394 200.293 80.0327C200.475 80.2154 200.567 80.4463 200.567 80.7256V96.0171C200.567 96.3072 200.47 96.5435 200.276 96.7261C200.094 96.9087 199.863 97 199.584 97H195.974C195.684 97 195.448 96.9087 195.265 96.7261C195.083 96.5435 194.991 96.3072 194.991 96.0171Z" fill="#0D74CC"/>
<path d="M212.346 93.5034L214.553 93.3101H215.15C215.44 93.3101 215.676 93.4014 215.859 93.584C216.052 93.7666 216.149 94.003 216.149 94.293V96.0171C216.149 96.2534 216.052 96.4683 215.859 96.6616C215.676 96.8443 215.44 96.9571 215.15 97C214.054 97.2149 212.625 97.3223 210.864 97.3223C206.244 97.3223 203.935 94.9053 203.935 90.0713V74.8926C203.935 74.6026 204.026 74.3662 204.209 74.1836C204.402 73.9903 204.638 73.8936 204.918 73.8936H208.527C208.806 73.8936 209.037 73.9903 209.22 74.1836C209.413 74.3662 209.51 74.6026 209.51 74.8926V80.2744H214.006C214.285 80.2744 214.516 80.3657 214.699 80.5484C214.892 80.731 214.989 80.9673 214.989 81.2573V83.1748C214.989 83.4649 214.892 83.7012 214.699 83.8838C214.516 84.0664 214.285 84.1577 214.006 84.1577H209.51V90.0713C209.51 91.167 209.768 92.0156 210.283 92.6172C210.799 93.208 211.487 93.5034 212.346 93.5034Z" fill="#0D74CC"/>
<path d="M221.241 98.6758L223.352 98.9497C224.867 98.9497 225.925 97.8379 226.526 95.6143C224.7 95.6143 223.175 95.0664 221.95 93.9707C220.726 92.8643 219.673 90.9038 218.792 88.0894L216.391 80.3067C216.359 80.2207 216.343 80.124 216.343 80.0166C216.343 79.8985 216.407 79.7588 216.536 79.5977C216.676 79.4365 216.88 79.3506 217.148 79.3399H220.516C220.828 79.3399 221.123 79.4473 221.402 79.6621C221.692 79.8662 221.88 80.124 221.966 80.4356L224.077 87.2676C224.603 88.9434 225.135 90.1035 225.672 90.7481C226.22 91.3926 226.865 91.7149 227.606 91.7149L230.812 80.4356C230.898 80.124 231.065 79.8662 231.312 79.6621C231.57 79.4473 231.854 79.3399 232.166 79.3399H235.566C235.834 79.3399 236.033 79.4258 236.162 79.5977C236.291 79.7696 236.355 79.9146 236.355 80.0327C236.355 80.1402 236.345 80.2315 236.323 80.3067L232.102 95.3565C231.35 98.0205 230.415 99.9219 229.298 101.061C228.191 102.199 226.763 102.769 225.012 102.769C223.261 102.769 222.02 102.704 221.289 102.575C220.57 102.446 220.119 102.285 219.936 102.092C219.753 101.909 219.662 101.694 219.662 101.447V99.6748C219.662 99.3848 219.753 99.1431 219.936 98.9497C220.119 98.7671 220.355 98.6758 220.645 98.6758H221.241Z" fill="#0D74CC"/>
<path d="M113.296 63.1035C111.991 58.8972 111.034 54.4574 109.477 50.2397C105.349 39.0611 98.4365 29.8782 88.8547 22.7471C88.4948 22.5188 88.4948 22.5999 88.0084 22.3566C84.3324 18.5697 80.6778 18.2304 75.8136 20.8797C71.1276 23.4319 67.4497 27.1095 64.4373 31.4566C62.8814 33.7019 61.4654 36.0474 60.0523 38.3876C59.2438 39.7265 58.2088 40.6604 56.5909 40.3992C54.9118 40.1281 54.1551 38.7732 53.8482 37.2974C52.9125 32.7979 52.7258 28.1297 53.445 23.5843C54.0553 19.7269 55.5385 16.6151 57.9842 13.7724C58.256 13.4565 58.5178 13.132 59.1562 12.3639C58.1818 12.5377 57.6642 12.5308 57.2342 12.7215C50.1134 15.8784 43.7285 20.1147 38.2927 25.7296C37.9033 26.1319 37.5245 26.5446 37.1289 26.9405C36.0289 28.0413 34.8125 28.5891 33.2699 27.8187C31.7273 27.0485 31.4899 25.7209 31.6299 24.2002C32.2531 17.4327 35.5648 12.0906 40.5829 7.75753C49.4164 0.129773 59.7086 -1.35905 70.4991 1.92324C93.8853 9.03688 108.207 24.6884 112.684 48.8532C113.534 53.4441 113.173 58.2594 113.296 63.1035Z" fill="url(#paint0_linear_21_9)"/>
<path d="M113.221 63.2357C112.659 72.0577 109.791 80.1705 105.259 87.6548C96.2962 102.455 83.1834 111.64 66.2644 114.958C54.7852 117.21 43.4718 115.905 32.6251 111.315C32.1859 111.129 31.7877 110.847 31.0811 110.445C37.8692 108.145 42.6277 104.067 44.4148 97.2398C45.7653 92.0802 45.4279 86.9376 43.4766 81.7089C42.7623 84.9282 42.2901 87.951 41.4063 90.8483C39.7096 96.4108 36.4709 100.859 31.1734 103.56C26.5772 105.903 21.2852 105.273 17.4263 101.832C8.99674 94.3165 2.77347 85.4272 0.736107 74.0736C-0.0856224 69.4944 -0.0405961 64.8997 1.36759 60.4059C3.3828 53.9749 7.58294 51.5316 14.1176 53.1137C19.8112 54.4922 24.777 57.5 29.7842 60.3984C34.245 62.9806 38.526 66.0283 43.2581 67.9587C59.1349 74.4356 75.9844 68.697 85.1894 54.1309C90.6022 45.5656 92.5933 36.5672 89.6892 26.6358C89.3111 25.3429 88.4784 23.703 88.0084 22.3566C88.2761 22.3017 88.7156 22.6436 88.8547 22.7471C98.4365 29.8782 105.349 39.0611 109.477 50.2397C111.034 54.4574 111.991 58.8972 113.221 63.2357Z" fill="url(#paint1_linear_21_9)"/>
<defs>
<linearGradient id="paint0_linear_21_9" x1="64.3754" y1="-40.6333" x2="96.4459" y2="73.3451" gradientUnits="userSpaceOnUse">
<stop stop-color="#005DAD"/>
<stop offset="1" stop-color="#31A0FF"/>
</linearGradient>
<linearGradient id="paint1_linear_21_9" x1="99.2766" y1="25.9249" x2="37.6373" y2="97.8348" gradientUnits="userSpaceOnUse">
<stop stop-color="#015FAF"/>
<stop offset="1" stop-color="#2399FF"/>
</linearGradient>
</defs>
</svg>
