<svg width="42" height="42" viewBox="0 0 42 42" fill="none" xmlns="http://www.w3.org/2000/svg">
<path d="M20.9982 6.5813C21.2356 6.58209 21.4653 6.65482 21.6965 6.8186C21.8815 6.9497 22.034 7.13608 22.1457 7.39868L22.1906 7.51587L24.7209 15.8948L24.8283 16.2502H33.0314C33.3292 16.2503 33.5621 16.3371 33.757 16.5032C33.9914 16.7029 34.1403 16.918 34.2238 17.1467C34.3026 17.3628 34.3193 17.6131 34.2502 17.9133C34.1937 18.1587 34.057 18.3604 33.8049 18.5276L33.798 18.5315L33.7912 18.5364L27.4475 23.0422L27.1535 23.2522L27.26 23.5969L29.7531 31.6907L29.757 31.7014L29.76 31.7122C29.868 32.0148 29.8538 32.2577 29.7551 32.4739C29.6294 32.7489 29.459 32.9538 29.2453 33.1028C29.0356 33.249 28.7936 33.3304 28.5051 33.342C28.2621 33.3518 28.0296 33.2765 27.7922 33.0823L27.7854 33.0764L27.7785 33.0715L21.3039 28.1272L21.0002 27.8958L20.6965 28.1272L14.2219 33.0715L14.215 33.0764L14.2082 33.0823C13.9723 33.2752 13.7391 33.3511 13.4934 33.342C13.2046 33.3314 12.9644 33.2496 12.757 33.1038C12.5432 32.9532 12.3722 32.7476 12.2463 32.4729C12.1478 32.2579 12.1328 32.0148 12.2404 31.7102L12.2463 31.6907L14.7404 23.5969L14.8469 23.2522L14.552 23.0422L8.20821 18.5364L8.20235 18.5315L8.19649 18.5276L8.10664 18.4631C7.90989 18.308 7.79857 18.1262 7.74922 17.9124C7.68042 17.6139 7.69739 17.3635 7.77657 17.1458C7.86019 16.9159 8.00945 16.7005 8.24336 16.5012C8.41347 16.3564 8.61248 16.2725 8.8586 16.2542L8.967 16.2502H17.1711L17.2785 15.8948L19.8117 7.50903C19.9284 7.18712 20.0971 6.96573 20.3068 6.81567C20.5357 6.6521 20.7629 6.58053 20.9982 6.5813Z" fill="#FFE941" stroke="#C8B20F"/>
</svg>
