<svg width="128" height="128" viewBox="0 0 128 128" fill="none" xmlns="http://www.w3.org/2000/svg">
<path d="M66.6667 122.667C64.4444 122.667 62.5564 121.911 61.0027 120.4C59.4489 118.889 58.6702 117.022 58.6667 114.8C58.6667 113.733 58.8675 112.711 59.2693 111.733C59.6711 110.756 60.2702 109.911 61.0667 109.2L66.6667 104L72.2667 109.2C73.0667 109.911 73.6675 110.756 74.0693 111.733C74.4711 112.711 74.6702 113.733 74.6667 114.8C74.6667 117.022 73.8898 118.889 72.336 120.4C70.7822 121.911 68.8924 122.667 66.6667 122.667ZM48.2667 114.667L42.6667 109.067L58.4 93.3333L64 98.9333L48.2667 114.667ZM82.6667 106.667L74.6667 98.6666L82.6667 90.6666L90.6667 98.6666L82.6667 106.667ZM34.6667 106.667L26.6667 98.6666L34.6667 90.6666L42.6667 98.6666L34.6667 106.667ZM40 85.3333C31.9111 85.3333 25.0009 82.4675 19.2693 76.736C13.5378 71.0044 10.6702 64.0924 10.6667 56C10.6667 48.6222 13.1111 42.1777 18 36.6666C22.8889 31.1555 28.9333 27.9111 36.1333 26.9333C38.9778 21.8666 42.8676 17.888 47.8027 14.9973C52.7378 12.1066 58.1369 10.6631 64 10.6666C72 10.6666 78.9564 13.2231 84.8693 18.336C90.7822 23.4489 94.3591 29.8257 95.6 37.4666C101.733 38 106.889 40.5333 111.067 45.0666C115.244 49.6 117.333 55.0222 117.333 61.3333C117.333 68 115.001 73.6675 110.336 78.336C105.671 83.0044 100.004 85.3368 93.3333 85.3333H40ZM40 74.6666H93.3333C97.0667 74.6666 100.222 73.3777 102.8 70.8C105.378 68.2222 106.667 65.0666 106.667 61.3333C106.667 57.6 105.378 54.4444 102.8 51.8666C100.222 49.2889 97.0667 48 93.3333 48H85.3333V42.6666C85.3333 36.8 83.2444 31.7777 79.0667 27.6C74.8889 23.4222 69.8667 21.3333 64 21.3333C59.7333 21.3333 55.8453 22.4889 52.336 24.8C48.8267 27.1111 46.1813 30.2222 44.4 34.1333L43.0667 37.3333H39.7333C34.6667 37.5111 30.3342 39.4009 26.736 43.0026C23.1378 46.6044 21.3369 50.9369 21.3333 56C21.3333 61.1555 23.1556 65.5555 26.8 69.2C30.4444 72.8444 34.8444 74.6666 40 74.6666Z" fill="#0566B8"/>
</svg>
